# xmcd CD database file
#
# Track frame offsets:
#	150
#	18880
#	37025
#	54175
#	76662
#	96135
#	111770
#	129635
#	144845
#	158782
#
# Disc length: 2542 seconds
#
# Revision: 1
# Processed by: cddbd v1.5.1PL0 Copyright (c) Steve Scherf et al.
# Submitted via: CDex 1.60beta1
#
DISCID=6f09ec0a
DTITLE=Jeffrey Osborne and Lenny Williams - Winning Combinations
DYEAR=2001
DGENRE=R&B
TTITLE0=Jeffrey Osborne - Don't Stop
TTITLE1=Jeffrey Osborne - On the Wings of Love
TTITLE2=Jeffrey Osborne - Congratulations
TTITLE3=Jeffrey Osborne - Stay With Me Tonight
TTITLE4=Jeffrey Osborne - You Should Be Mine (The Woo Woo Song)
TTITLE5=Lenny Williams - Choosing You
TTITLE6=Lenny Williams - O-o-h Child
TTITLE7=Lenny Williams - Shoo Doo Fu Fu Ooh!
TTITLE8=Lenny Williams - Since I Met You
TTITLE9=Lenny Williams - 'Cause I Love You
EXTD=YEAR: 2001
EXTT0=
EXTT1=
EXTT2=
EXTT3=
EXTT4=
EXTT5=
EXTT6=
EXTT7=
EXTT8=
EXTT9=
PLAYORDER=
